<svg width="100" height="100" viewBox="0 0 100 100" fill="none" xmlns="http://www.w3.org/2000/svg">
<path d="M80 30.8077C80 16.0022 66.0063 3 50 3C33.9937 3 20 16.0022 20 30.8077C20 36.9338 24.292 45.616 28.6391 53.867C37.2259 70.1653 27.5173 86 50 86C72.4827 86 62.7741 70.1653 71.3609 53.867C75.708 45.616 80 36.7669 80 30.8077Z" stroke="white" stroke-width="5"/>
<path d="M36.0183 18.252C32.2088 21.5424 30.304 26.6447 30.304 32.9388C30.304 39.2328 38.304 52.252 38.304 52.252" stroke="white" stroke-width="5" stroke-linecap="round"/>
<path d="M48.6 46.5238C48.6 45.9765 48.3757 45.453 47.9793 45.0755L43.7341 41.0325C43.3346 40.652 43.3346 40.0147 43.7341 39.6342V39.6342C44.107 39.279 44.693 39.279 45.0659 39.6342L48.6207 43.0197C49.3931 43.7553 50.6069 43.7553 51.3793 43.0197L54.9341 39.6342C55.307 39.279 55.893 39.279 56.2659 39.6342V39.6342C56.6654 40.0147 56.6654 40.652 56.2659 41.0325L52.0207 45.0755C51.6243 45.453 51.4 45.9765 51.4 46.5238V76.6C51.4 77.3732 50.7732 78 50 78V78C49.2268 78 48.6 77.3732 48.6 76.6V46.5238Z" fill="white" stroke="white" stroke-width="3" stroke-linejoin="round"/>
<path d="M43 36L45 33L46.732 35L48.4641 33L50.1961 35L51.9282 33L53.6602 35L55.3923 33L57 36" stroke="white" stroke-width="2" stroke-linecap="round" stroke-linejoin="round"/>
<path d="M31.5252 80.5858V76.4804C31.5252 76.1154 31.2293 75.8194 30.8642 75.8194C29.0391 75.8194 27.5596 74.3399 27.5596 72.5148V72.2198C27.5596 70.2318 29.1712 68.6202 31.1592 68.6202H67.96C69.948 68.6202 71.5596 70.2318 71.5596 72.2198V72.5148C71.5596 74.3399 70.08 75.8194 68.2549 75.8194C67.8899 75.8194 67.594 76.1154 67.594 76.4804V80.5858C67.594 90.5459 59.5197 98.6202 49.5596 98.6202C39.5994 98.6202 31.5252 90.5459 31.5252 80.5858Z" fill="white"/>
</svg>
