<svg width="100" height="100" viewBox="0 0 100 100" fill="none" xmlns="http://www.w3.org/2000/svg">
<path d="M28.5 70.6295C21.9022 64.7603 17.75 56.231 17.75 46.7379C17.75 29.0353 32.1888 14.6845 50 14.6845C67.8112 14.6845 82.25 29.0353 82.25 46.7379C82.25 56.231 78.0978 64.7603 71.5 70.6295C63.8801 70.6295 50 70.6295 50 70.6295C50 70.6295 41.4 70.6295 28.5 70.6295ZM28.5 70.6295V83.7582M28.5 83.7582C28.5 98.0233 29.0375 95.8864 50 95.8864C70.9625 95.8864 71.5 98.0233 71.5 83.7582C84.3527 76.3686 93 62.5569 93 46.7379C93 23.1344 73.7482 4 50 4C26.2518 4 7 23.1344 7 46.7379C7 62.5569 15.6473 76.3686 28.5 83.7582Z" stroke="black" stroke-width="4"/>
<path fill-rule="evenodd" clip-rule="evenodd" d="M51.9863 84.816C51.8694 84.3485 52.1112 83.8737 52.5029 83.5929C53.5911 82.8127 54.3 81.5372 54.3 80.096C54.3 77.7212 52.3748 75.796 50 75.796C47.6252 75.796 45.7 77.7212 45.7 80.096C45.7 81.5372 46.409 82.8127 47.4971 83.5929C47.8888 83.8737 48.1306 84.3485 48.0138 84.816L47.0856 88.5285C46.9279 89.1596 47.4052 89.771 48.0558 89.771H51.9442C52.5948 89.771 53.0722 89.1596 52.9144 88.5285L51.9863 84.816Z" fill="black"/>
<circle cx="40" cy="36" r="5" fill="black"/>
<circle cx="60" cy="36" r="5" fill="black"/>
<path d="M41.6531 15.6199C38.7857 16.3882 35.8384 14.6866 35.07 11.8192C34.3017 8.95183 36.0034 6.00452 38.8707 5.2362" stroke="black" stroke-width="4"/>
<path d="M32 55C32 55 39.2 50 50 50C60.8 50 68 55 68 55" stroke="black" stroke-width="5" stroke-linecap="round"/>
</svg>
