<svg width="100" height="100" viewBox="0 0 100 100" fill="white" xmlns="http://www.w3.org/2000/svg">
<path d="M42.4995 32.8203L35.855 41.1392C35.6089 40.8491 35.2661 40.502 34.8267 40.0977C34.3872 39.6934 33.7236 39.2275 32.8359 38.7002C31.957 38.1641 30.8496 37.6982 29.5137 37.3027C28.1865 36.9072 26.6792 36.7095 24.9917 36.7095C23.0317 36.771 21.1772 37.3906 19.4282 38.5684C17.688 39.7461 16.2993 41.2798 15.2622 43.1694C14.2251 45.0503 13.7065 47.019 13.7065 49.0757C13.7065 51.4663 14.2471 53.6372 15.3281 55.5884C16.4092 57.5396 17.9209 59.0688 19.8633 60.1763C21.8145 61.2749 24.0117 61.8242 26.4551 61.8242C27.4658 61.8242 28.7314 61.6572 30.252 61.3232C31.7725 60.9893 32.5767 60.7783 32.6646 60.6904V54.2041H21.4849L24.6753 45.2393H43.8442V67.7041C43.6685 67.8799 42.7324 68.3369 41.0361 69.0752C39.3398 69.8135 37.1777 70.5078 34.5498 71.1582C31.9219 71.8086 29.1138 72.1338 26.1255 72.1338C21.6431 72.1338 17.5913 71.1143 13.9702 69.0752C10.3579 67.0361 7.52783 64.2588 5.47998 60.7432C3.44092 57.2188 2.42139 53.3647 2.42139 49.1812C2.44775 46.105 3.03662 43.1958 4.18799 40.4536C5.33936 37.7026 6.94775 35.2812 9.01318 33.1895C11.0786 31.0977 13.4868 29.4673 16.2378 28.2983C18.9976 27.1294 21.9551 26.5317 25.1104 26.5054C31.9658 26.5054 37.7622 28.6104 42.4995 32.8203ZM73.0591 36.7095C70.8706 36.7446 68.8271 37.373 66.9287 38.5947C65.0391 39.8076 63.5361 41.4468 62.4199 43.5122C61.3037 45.5688 60.7456 47.8013 60.7456 50.2095C60.8511 52.2749 61.519 54.2129 62.7495 56.0234C63.9888 57.834 65.5972 59.271 67.5747 60.3345C69.5522 61.3979 71.6309 61.9297 73.8105 61.9297C75.7705 61.8242 77.6821 61.1738 79.5454 59.9785C81.4175 58.7832 82.9292 57.2319 84.0806 55.3247C85.2319 53.4087 85.8076 51.396 85.8076 49.2866C85.8076 48.8208 85.79 48.4604 85.7549 48.2056C85.5352 46.0347 84.8364 44.0703 83.6587 42.3125C82.4897 40.5547 80.9692 39.1836 79.0972 38.1992C77.2339 37.2061 75.2212 36.7095 73.0591 36.7095ZM73.5996 26.2944C76.8076 26.3472 79.8311 26.98 82.6699 28.1929C85.5176 29.397 88.0093 31.0669 90.145 33.2026C92.2808 35.3384 93.9419 37.8213 95.1284 40.6514C96.3237 43.4727 96.9214 46.4785 96.9214 49.6689C96.8423 52.7539 96.1787 55.6675 94.9307 58.4097C93.6914 61.1519 91.9863 63.5513 89.8154 65.6079C87.6445 67.6558 85.1265 69.2554 82.2612 70.4067C79.396 71.5581 76.3638 72.1338 73.1646 72.1338C68.647 72.0459 64.6084 70.9604 61.0488 68.8774C57.498 66.7856 54.7339 63.938 52.7563 60.3345C50.7788 56.731 49.79 52.7275 49.79 48.3242C49.8779 45.2217 50.5503 42.3257 51.8071 39.6362C53.0728 36.938 54.7954 34.5869 56.9751 32.583C59.1548 30.5791 61.6685 29.0322 64.5161 27.9424C67.3726 26.8437 70.4004 26.2944 73.5996 26.2944Z"/>
</svg>
