<svg width="80" height="80" viewBox="0 0 80 80" fill="white" xmlns="http://www.w3.org/2000/svg">
<path fill-rule="evenodd" clip-rule="evenodd" d="M40 80C62.0914 80 80 62.0914 80 40C80 17.9086 62.0914 0 40 0C17.9086 0 0 17.9086 0 40C0 62.0914 17.9086 80 40 80ZM10.2815 63.2185C5.27345 56.8175 2.28844 48.7573 2.28844 40C2.28844 31.1175 5.35939 22.9523 10.4975 16.5081L33.5 40L10.2815 63.2185ZM17.3473 70.1527C23.6545 74.8986 31.4988 77.7116 40 77.7116C48.7573 77.7116 56.8175 74.7266 63.2185 69.7185L40.5 47L17.3473 70.1527ZM17.0699 10.0581L40.5 33L63.2185 10.2815C56.8175 5.27345 48.7573 2.28844 40 2.28844C31.3737 2.28844 23.4239 5.18479 17.0699 10.0581ZM77.7116 40C77.7116 48.5031 74.8973 56.349 70.1495 62.6569L47 40L69.9368 17.0632C74.8132 23.4183 77.7116 31.3707 77.7116 40Z"/>
<path d="M18 41.042L22.458 47.1406L18.2002 48.459L13.2783 40.9199V48.0391L9.02051 48.2783V31.9014H14.0205C14.9222 31.9014 15.749 31.9795 16.501 32.1357C17.2529 32.2887 17.9284 32.5459 18.5273 32.9072C19.1296 33.2653 19.6146 33.7503 19.9824 34.3623C20.3535 34.9743 20.5667 35.7197 20.6221 36.5986C20.6221 38.5876 19.748 40.0687 18 41.042ZM13.2783 39.3623H14.2207C14.7253 39.3623 15.1452 39.2549 15.4805 39.04C15.8158 38.8252 16.0599 38.5485 16.2129 38.21C16.3659 37.8714 16.4424 37.515 16.4424 37.1406C16.3838 35.7409 15.6156 35.041 14.1377 35.041H13.2783V39.3623Z" />
<path d="M69 41.042L73.458 47.1406L69.2002 48.459L64.2783 40.9199V48.0391L60.0205 48.2783V31.9014H65.0205C65.9222 31.9014 66.749 31.9795 67.501 32.1357C68.2529 32.2887 68.9284 32.5459 69.5273 32.9072C70.1296 33.2653 70.6146 33.7503 70.9824 34.3623C71.3535 34.9743 71.5667 35.7197 71.6221 36.5986C71.6221 38.5876 70.748 40.0687 69 41.042ZM64.2783 39.3623H65.2207C65.7253 39.3623 66.1452 39.2549 66.4805 39.04C66.8158 38.8252 67.0599 38.5485 67.2129 38.21C67.3659 37.8714 67.4424 37.515 67.4424 37.1406C67.3838 35.7409 66.6156 35.041 65.1377 35.041H64.2783V39.3623Z" />
</svg>
