<svg width="100" height="100" viewBox="0 0 100 100" fill="none" xmlns="http://www.w3.org/2000/svg">
<mask id="path-1-outside-1_25_446" maskUnits="userSpaceOnUse" x="1" y="41" width="98" height="56" fill="black">
<rect fill="white" x="1" y="41" width="98" height="56"/>
<path fill-rule="evenodd" clip-rule="evenodd" d="M5 58.9176C5.4925 58.972 5.99299 59 6.5 59C13.9558 59 20 52.9558 20 45.5C20 45.3326 19.997 45.1659 19.9909 45H80.0091C80.003 45.1659 80 45.3326 80 45.5C80 52.9558 86.0442 59 93.5 59C94.007 59 94.5075 58.972 95 58.9176V79.0824C94.5075 79.028 94.007 79 93.5 79C86.0442 79 80 85.0442 80 92.5C80 92.6674 80.003 92.8341 80.0091 93H19.9909C19.997 92.8341 20 92.6674 20 92.5C20 85.0442 13.9558 79 6.5 79C5.99299 79 5.4925 79.028 5 79.0824V58.9176ZM5 84.1319V92C5 92.5523 5.44772 93 6 93H14.9855C14.9951 92.8346 15 92.6678 15 92.5C15 87.8056 11.1944 84 6.5 84C5.98817 84 5.48691 84.0452 5 84.1319ZM15 45.5C15 45.3322 14.9951 45.1654 14.9855 45H6C5.44772 45 5 45.4477 5 46V53.8681C5.48691 53.9548 5.98817 54 6.5 54C11.1944 54 15 50.1944 15 45.5ZM85.0145 45H94C94.5523 45 95 45.4477 95 46V53.8681C94.5131 53.9548 94.0118 54 93.5 54C88.8056 54 85 50.1944 85 45.5C85 45.3322 85.0049 45.1654 85.0145 45ZM94 93H85.0145C85.0049 92.8346 85 92.6678 85 92.5C85 87.8056 88.8056 84 93.5 84C94.0118 84 94.5131 84.0452 95 84.1319V92C95 92.5523 94.5523 93 94 93ZM50 86C59.3888 86 67 78.3888 67 69C67 59.6112 59.3888 52 50 52C40.6112 52 33 59.6112 33 69C33 78.3888 40.6112 86 50 86Z"/>
</mask>
<path d="M5 58.9176L5.43949 54.9418L1 54.4511V58.9176H5ZM19.9909 45V41H15.8426L15.9936 45.1455L19.9909 45ZM80.0091 45L84.0064 45.1456L84.1574 41H80.0091V45ZM95 58.9176H99V54.4511L94.5605 54.9418L95 58.9176ZM95 79.0824L94.5605 83.0582L99 83.5489V79.0824H95ZM80.0091 93V97H84.1574L84.0064 92.8544L80.0091 93ZM19.9909 93L15.9936 92.8545L15.8426 97H19.9909V93ZM5 79.0824H1V83.5489L5.4395 83.0582L5 79.0824ZM5 84.1319L4.29881 80.1939L1 80.7812V84.1319H5ZM14.9855 93V97H18.7602L18.9788 93.2316L14.9855 93ZM14.9855 45L18.9788 44.7684L18.7602 41H14.9855V45ZM5 53.8681H1V57.2188L4.29883 57.8061L5 53.8681ZM85.0145 45V41H81.2398L81.0212 44.7683L85.0145 45ZM95 53.8681L95.7012 57.8061L99 57.2188V53.8681H95ZM85.0145 93L81.0212 93.2317L81.2398 97H85.0145V93ZM95 84.1319H99V80.7812L95.7012 80.1939L95 84.1319ZM6.5 55C6.14011 55 5.78634 54.9802 5.43949 54.9418L4.56051 62.8934C5.19866 62.9639 5.84587 63 6.5 63V55ZM16 45.5C16 50.7467 11.7467 55 6.5 55V63C16.165 63 24 55.165 24 45.5H16ZM15.9936 45.1455C15.9978 45.263 16 45.3811 16 45.5H24C24 45.2841 23.9961 45.0689 23.9883 44.8545L15.9936 45.1455ZM80.0091 41H19.9909V49H80.0091V41ZM84 45.5C84 45.3811 84.0022 45.263 84.0064 45.1456L76.0117 44.8544C76.0039 45.0689 76 45.2841 76 45.5H84ZM93.5 55C88.2533 55 84 50.7467 84 45.5H76C76 55.165 83.835 63 93.5 63V55ZM94.5605 54.9418C94.2137 54.9802 93.8599 55 93.5 55V63C94.1541 63 94.8013 62.9639 95.4395 62.8934L94.5605 54.9418ZM99 79.0824V58.9176H91V79.0824H99ZM93.5 83C93.8599 83 94.2137 83.0198 94.5605 83.0582L95.4395 75.1066C94.8013 75.0361 94.1541 75 93.5 75V83ZM84 92.5C84 87.2533 88.2533 83 93.5 83V75C83.835 75 76 82.835 76 92.5H84ZM84.0064 92.8544C84.0022 92.737 84 92.6189 84 92.5H76C76 92.7159 76.0039 92.9311 76.0117 93.1456L84.0064 92.8544ZM19.9909 97H80.0091V89H19.9909V97ZM16 92.5C16 92.6189 15.9978 92.737 15.9936 92.8545L23.9883 93.1455C23.9961 92.9311 24 92.7159 24 92.5H16ZM6.5 83C11.7467 83 16 87.2533 16 92.5H24C24 82.835 16.165 75 6.5 75V83ZM5.4395 83.0582C5.78634 83.0198 6.14011 83 6.5 83V75C5.84587 75 5.19866 75.0361 4.5605 75.1066L5.4395 83.0582ZM1 58.9176V79.0824H9V58.9176H1ZM1 84.1319V92H9V84.1319H1ZM1 92C1 94.7614 3.23859 97 6 97V89C7.65684 89 9 90.3431 9 92H1ZM6 97H14.9855V89H6V97ZM18.9788 93.2316C18.9929 92.9891 19 92.7452 19 92.5H11C11 92.5905 10.9974 92.68 10.9923 92.7684L18.9788 93.2316ZM19 92.5C19 85.5964 13.4036 80 6.5 80V88C8.98528 88 11 90.0147 11 92.5H19ZM6.5 80C5.75202 80 5.01614 80.0661 4.29881 80.1939L5.70119 88.07C5.95769 88.0243 6.22432 88 6.5 88V80ZM10.9923 45.2316C10.9974 45.32 11 45.4095 11 45.5H19C19 45.2548 18.9929 45.0109 18.9788 44.7684L10.9923 45.2316ZM6 49H14.9855V41H6V49ZM9 46C9 47.6569 7.65685 49 6 49V41C3.23858 41 1 43.2386 1 46H9ZM9 53.8681V46H1V53.8681H9ZM6.5 50C6.22432 50 5.95768 49.9757 5.70117 49.93L4.29883 57.8061C5.01615 57.9339 5.75203 58 6.5 58V50ZM11 45.5C11 47.9853 8.98528 50 6.5 50V58C13.4036 58 19 52.4036 19 45.5H11ZM94 41H85.0145V49H94V41ZM99 46C99 43.2386 96.7614 41 94 41V49C92.3431 49 91 47.6569 91 46H99ZM99 53.8681V46H91V53.8681H99ZM93.5 58C94.248 58 94.9839 57.9339 95.7012 57.8061L94.2988 49.93C94.0423 49.9757 93.7757 50 93.5 50V58ZM81 45.5C81 52.4036 86.5964 58 93.5 58V50C91.0147 50 89 47.9853 89 45.5H81ZM81.0212 44.7683C81.0071 45.011 81 45.2549 81 45.5H89C89 45.4094 89.0026 45.3199 89.0077 45.2317L81.0212 44.7683ZM85.0145 97H94V89H85.0145V97ZM81 92.5C81 92.7451 81.0071 92.989 81.0212 93.2317L89.0077 92.7683C89.0026 92.6801 89 92.5906 89 92.5H81ZM93.5 80C86.5964 80 81 85.5964 81 92.5H89C89 90.0147 91.0147 88 93.5 88V80ZM95.7012 80.1939C94.9839 80.0662 94.248 80 93.5 80V88C93.7757 88 94.0423 88.0243 94.2988 88.07L95.7012 80.1939ZM99 92V84.1319H91V92H99ZM94 97C96.7614 97 99 94.7614 99 92H91C91 90.3431 92.3431 89 94 89V97ZM63 69C63 76.1797 57.1797 82 50 82V90C61.598 90 71 80.598 71 69H63ZM50 56C57.1797 56 63 61.8203 63 69H71C71 57.402 61.598 48 50 48V56ZM37 69C37 61.8203 42.8203 56 50 56V48C38.402 48 29 57.402 29 69H37ZM50 82C42.8203 82 37 76.1797 37 69H29C29 80.598 38.402 90 50 90V82Z" fill="white" mask="url(#path-1-outside-1_25_446)"/>
<path d="M48.2812 58.8828L48.4766 55.3594L52.2188 54.9453V58.75C52.7083 58.75 53.1693 58.8385 53.6016 59.0156C54.0339 59.1875 54.4375 59.4167 54.8125 59.7031C55.1927 59.9844 55.5911 60.3307 56.0078 60.7422C56.4245 61.1536 56.763 61.4922 57.0234 61.7578L53.5938 64.7344C53.1042 64.2448 52.6771 63.888 52.3125 63.6641C51.9479 63.4401 51.4792 63.3281 50.9062 63.3281C49.8177 63.3281 49.1901 63.724 49.0234 64.5156C49.1224 64.9635 49.3958 65.3099 49.8438 65.5547C50.2969 65.7943 50.9297 66.0156 51.7422 66.2188C52.5599 66.4167 53.0495 66.5521 53.2109 66.625C54.1536 67 55.0391 67.6302 55.8672 68.5156C56.6953 69.3958 57.1224 70.599 57.1484 72.125C57.1484 74.6771 55.8802 76.5755 53.3438 77.8203C53.0729 77.9349 52.7995 78.0312 52.5234 78.1094C52.2474 78.1875 52.1042 78.2318 52.0938 78.2422V82.0469L48.2812 82.5625V78.3672C48.1719 78.3672 47.8542 78.3125 47.3281 78.2031C46.8073 78.0885 46.401 77.9609 46.1094 77.8203C45.4688 77.5182 44.8984 77.2057 44.3984 76.8828C43.8984 76.5547 43.5026 76.2708 43.2109 76.0312C42.9245 75.7865 42.7812 75.6484 42.7812 75.6172L45.9141 72C46.5026 72.5781 47.0651 73.0052 47.6016 73.2812C48.1432 73.5573 48.7656 73.6953 49.4688 73.6953C50.7292 73.6953 51.3594 73.3021 51.3594 72.5156C51.3594 71.875 51.0182 71.4375 50.3359 71.2031C49.9714 71.0365 49.4974 70.8802 48.9141 70.7344C48.3359 70.5833 47.8359 70.4323 47.4141 70.2812C46.9922 70.125 46.5156 69.8672 45.9844 69.5078C45.2031 68.9974 44.5807 68.2969 44.1172 67.4062C43.6536 66.5156 43.4219 65.6458 43.4219 64.7969C43.4479 63.4896 43.8281 62.3698 44.5625 61.4375C45.2969 60.5052 46.0781 59.8125 46.9062 59.3594C47.474 59.0417 47.9323 58.8828 48.2812 58.8828Z" fill="white"/>
<path d="M36 14.5C36 20.8513 30.8513 26 24.5 26C18.1487 26 13 20.8513 13 14.5C13 8.14873 18.1487 3 24.5 3C30.8513 3 36 8.14873 36 14.5ZM18.75 14.5C18.75 17.6756 21.3244 20.25 24.5 20.25C27.6756 20.25 30.25 17.6756 30.25 14.5C30.25 11.3244 27.6756 8.75 24.5 8.75C21.3244 8.75 18.75 11.3244 18.75 14.5Z" fill="white"/>
<path d="M66.234 8L67.734 15C67.734 15 62.352 25.2219 57.6839 30.6016L54.6955 34.0455C53.5285 35.3904 51.7199 37.3814 49.734 39.5C49.3535 39.9059 48.903 40.4229 48.4132 41L36.0273 41C36.0816 40.9339 36.1313 40.8746 36.1761 40.8222C38.4917 38.1164 41.8188 33.6242 44.1529 30.9344L47.1412 27.4905L50.1296 24.0465C51.5884 22.3654 66.234 8 66.234 8Z" fill="white" fill-opacity="0.8"/>
<path d="M87 14.5C87 20.8513 81.8513 26 75.5 26C69.1487 26 64 20.8513 64 14.5C64 8.14873 69.1487 3 75.5 3C81.8513 3 87 8.14873 87 14.5ZM69.75 14.5C69.75 17.6756 72.3243 20.25 75.5 20.25C78.6756 20.25 81.25 17.6756 81.25 14.5C81.25 11.3244 78.6756 8.75 75.5 8.75C72.3243 8.75 69.75 11.3244 69.75 14.5Z" fill="white"/>
<path d="M33.5 8L32 15C32 15 37.382 25.2219 42.0501 30.6016L45.0385 34.0455C46.2055 35.3904 48.0141 37.3814 50 39.5C51.6852 41.2978 54.7449 45.2754 56.5 47C60.8356 51.2603 63.4306 53.869 67.5 58C71.5694 62.131 77.5 68 77.5 68L82.5 72.5536C82.5 72.5536 85.2467 74.7998 86.6134 75.8988C86.8528 76.0913 87.2057 76.0213 87.3567 75.7538C87.4453 75.5969 87.4426 75.4046 87.3498 75.2502L81.0938 64.8464C81.0938 64.8464 65.8735 43.528 63.5579 40.8222C61.2423 38.1164 57.9152 33.6242 55.5812 30.9344L52.5928 27.4905L49.6044 24.0465C48.1456 22.3654 33.5 8 33.5 8Z" fill="white"/>
</svg>
