<svg width="100" height="100" viewBox="0 0 100 100" fill="none" xmlns="http://www.w3.org/2000/svg">
<path fill-rule="evenodd" clip-rule="evenodd" d="M50 98.1C67.1208 98.1 81 84.034 81 66.6827C81 49.3314 50 2 50 2C50 2 19 49.3314 19 66.6827C19 84.034 32.8792 98.1 50 98.1ZM43.551 32.1965C43.9633 31.4779 43.715 30.5612 42.9965 30.1489C42.2779 29.7367 41.3612 29.9849 40.9489 30.7035L42.25 31.45C40.9489 30.7035 40.9488 30.7037 40.9486 30.704L40.948 30.7051L40.9458 30.709L40.9376 30.7233L40.9064 30.778C40.8792 30.8258 40.8391 30.8963 40.7871 30.9884C40.6832 31.1725 40.5315 31.4427 40.3388 31.7901C39.9535 32.4849 39.4041 33.4886 38.7455 34.7291C37.4287 37.2089 35.6718 40.641 33.9133 44.4467C32.1565 48.2486 30.3882 52.445 29.0563 56.4496C27.7342 60.425 26.8 64.333 26.8 67.5173C26.8 73.499 27.5826 77.9764 29.722 81.5873C31.8709 85.2143 35.2649 87.7595 40.0291 90.1416C40.7701 90.5121 41.6711 90.2118 42.0416 89.4708C42.4121 88.7298 42.1118 87.8288 41.3708 87.4584C36.8351 85.1905 34.029 82.9714 32.303 80.0581C30.5673 77.1287 29.8 73.2897 29.8 67.5173C29.8 64.8245 30.6095 61.2856 31.903 57.3964C33.1868 53.5364 34.9059 49.4506 36.6366 45.705C38.3656 41.9631 40.0962 38.5823 41.3951 36.136C42.0442 34.9135 42.5847 33.926 42.9623 33.2452C43.1511 32.9048 43.2991 32.6413 43.3995 32.4635C43.4496 32.3746 43.4879 32.3071 43.5135 32.2622L43.5421 32.212L43.5491 32.1999L43.5507 32.1971L43.551 32.1965L42.25 31.45L43.551 32.1965Z" fill="white"/>
</svg>
